<?xml version="1.0" standalone="no"?>
<svg viewBox="0 0 200 200" xmlns="http://www.w3.org/2000/svg">
  <path fill="#FA4D56" d="M35.4,-54.6C48.7,-53.6,64.4,-49.9,65.7,-40.4C67,-30.8,53.8,-15.4,44.3,-5.5C34.8,4.4,28.9,8.8,24.4,12.8C19.9,16.7,16.7,20.1,12.9,32.4C9.1,44.7,4.5,65.9,-3.2,71.5C-11,77.1,-22,67.1,-35.3,60.3C-48.7,53.5,-64.5,49.9,-71.4,40.4C-78.4,30.9,-76.5,15.4,-76.7,-0.1C-76.8,-15.6,-79,-31.2,-73.6,-43.5C-68.3,-55.9,-55.5,-64.9,-42,-65.8C-28.4,-66.6,-14.2,-59.4,-1.6,-56.6C11,-53.9,22.1,-55.6,35.4,-54.6Z" transform="translate(100 100)" />
</svg>
