<svg id="wave" style="transform:rotate(0deg); transition: 0.3s" viewBox="0 0 1440 490" version="1.1" xmlns="http://www.w3.org/2000/svg"><defs><linearGradient id="sw-gradient-0" x1="0" x2="0" y1="1" y2="0"><stop stop-color="rgba(255, 179, 11, 1)" offset="0%"></stop><stop stop-color="rgba(255, 179, 11, 1)" offset="100%"></stop></linearGradient></defs><path style="transform:translate(0, 0px); opacity:1" fill="url(#sw-gradient-0)" d="M0,392L80,392C160,392,320,392,480,326.7C640,261,800,131,960,65.3C1120,0,1280,0,1440,24.5C1600,49,1760,98,1920,98C2080,98,2240,49,2400,32.7C2560,16,2720,33,2880,73.5C3040,114,3200,180,3360,220.5C3520,261,3680,278,3840,310.3C4000,343,4160,392,4320,343C4480,294,4640,147,4800,81.7C4960,16,5120,33,5280,65.3C5440,98,5600,147,5760,212.3C5920,278,6080,359,6240,359.3C6400,359,6560,278,6720,253.2C6880,229,7040,261,7200,253.2C7360,245,7520,196,7680,196C7840,196,8000,245,8160,277.7C8320,310,8480,327,8640,302.2C8800,278,8960,212,9120,187.8C9280,163,9440,180,9600,220.5C9760,261,9920,327,10080,359.3C10240,392,10400,392,10560,367.5C10720,343,10880,294,11040,236.8C11200,180,11360,114,11440,81.7L11520,49L11520,490L11440,490C11360,490,11200,490,11040,490C10880,490,10720,490,10560,490C10400,490,10240,490,10080,490C9920,490,9760,490,9600,490C9440,490,9280,490,9120,490C8960,490,8800,490,8640,490C8480,490,8320,490,8160,490C8000,490,7840,490,7680,490C7520,490,7360,490,7200,490C7040,490,6880,490,6720,490C6560,490,6400,490,6240,490C6080,490,5920,490,5760,490C5600,490,5440,490,5280,490C5120,490,4960,490,4800,490C4640,490,4480,490,4320,490C4160,490,4000,490,3840,490C3680,490,3520,490,3360,490C3200,490,3040,490,2880,490C2720,490,2560,490,2400,490C2240,490,2080,490,1920,490C1760,490,1600,490,1440,490C1280,490,1120,490,960,490C800,490,640,490,480,490C320,490,160,490,80,490L0,490Z"></path></svg>